<svg width="30" height="30" viewBox="0 0 30 30" fill="none" xmlns="http://www.w3.org/2000/svg">
<mask id="mask0_229_705" style="mask-type:alpha" maskUnits="userSpaceOnUse" x="0" y="0" width="30" height="30">
<rect width="30" height="30" fill="#D9D9D9"/>
</mask>
<g mask="url(#mask0_229_705)">
<path d="M5.38469 25.6249C4.75327 25.6249 4.21881 25.4062 3.78131 24.9687C3.34381 24.5312 3.12506 23.9967 3.12506 23.3653V9.375H5.00003V23.3653C5.00003 23.4615 5.04009 23.5496 5.12022 23.6298C5.20036 23.7099 5.28852 23.75 5.38469 23.75H23.125V25.6249H5.38469ZM10.3847 20.6249C9.75327 20.6249 9.21881 20.4062 8.78131 19.9687C8.34381 19.5312 8.12506 18.9967 8.12506 18.3653V4.375H28.125V18.3653C28.125 18.9967 27.9063 19.5312 27.4688 19.9687C27.0313 20.4062 26.4968 20.6249 25.8654 20.6249H10.3847ZM12.5 15H17.5V8.74997H12.5V15ZM18.75 15H23.75V12.5H18.75V15ZM18.75 11.25H23.75V8.74997H18.75V11.25Z" fill="#B32751"/>
</g>
</svg>
