<svg width="30" height="30" viewBox="0 0 30 30" fill="none" xmlns="http://www.w3.org/2000/svg">
<mask id="mask0_228_603" style="mask-type:alpha" maskUnits="userSpaceOnUse" x="0" y="0" width="30" height="30">
<rect width="30" height="30" fill="#D9D9D9"/>
</mask>
<g mask="url(#mask0_228_603)">
<path d="M7.78845 16.8749C7.27285 16.8749 6.83145 16.6913 6.46426 16.3242C6.0971 15.957 5.91351 15.5156 5.91351 15C5.91351 14.4844 6.0971 14.043 6.46426 13.6758C6.83145 13.3086 7.27285 13.125 7.78845 13.125C8.30408 13.125 8.74547 13.3086 9.11264 13.6758C9.47983 14.043 9.66342 14.4844 9.66342 15C9.66342 15.5156 9.47983 15.957 9.11264 16.3242C8.74547 16.6913 8.30408 16.8749 7.78845 16.8749ZM15 16.8749C14.4844 16.8749 14.043 16.6913 13.6758 16.3242C13.3086 15.957 13.125 15.5156 13.125 15C13.125 14.4844 13.3086 14.043 13.6758 13.6758C14.043 13.3086 14.4844 13.125 15 13.125C15.5156 13.125 15.957 13.3086 16.3242 13.6758C16.6914 14.043 16.875 14.4844 16.875 15C16.875 15.5156 16.6914 15.957 16.3242 16.3242C15.957 16.6913 15.5156 16.8749 15 16.8749ZM22.2115 16.8749C21.6959 16.8749 21.2545 16.6913 20.8873 16.3242C20.5201 15.957 20.3365 15.5156 20.3365 15C20.3365 14.4844 20.5201 14.043 20.8873 13.6758C21.2545 13.3086 21.6959 13.125 22.2115 13.125C22.7271 13.125 23.1685 13.3086 23.5357 13.6758C23.9029 14.043 24.0865 14.4844 24.0865 15C24.0865 15.5156 23.9029 15.957 23.5357 16.3242C23.1685 16.6913 22.7271 16.8749 22.2115 16.8749Z" fill="#B32751"/>
</g>
</svg>
