<svg width="26" height="27" viewBox="0 0 26 27" fill="none" xmlns="http://www.w3.org/2000/svg">
<mask id="mask0_249_568" style="mask-type:alpha" maskUnits="userSpaceOnUse" x="0" y="0" width="26" height="27">
<rect y="0.5" width="26" height="26" fill="#D9D9D9"/>
</mask>
<g mask="url(#mask0_249_568)">
<path d="M4.875 20.9583V19.3334H6.83334V11.25C6.83334 9.79307 7.28299 8.50488 8.18228 7.38544C9.08159 6.26599 10.2361 5.55003 11.6458 5.23754V4.56254C11.6458 4.18639 11.7774 3.86666 12.0404 3.60336C12.3035 3.34004 12.6229 3.20837 12.9988 3.20837C13.3746 3.20837 13.6944 3.34004 13.9583 3.60336C14.2222 3.86666 14.3541 4.18639 14.3541 4.56254V5.23754C15.7638 5.55003 16.9184 6.26599 17.8177 7.38544C18.717 8.50488 19.1666 9.79307 19.1666 11.25V19.3334H21.1249V20.9583H4.875ZM12.9981 24C12.4591 24 11.9982 23.8082 11.6156 23.4247C11.233 23.0412 11.0417 22.5802 11.0417 22.0417H14.9583C14.9583 22.5819 14.7664 23.0434 14.3825 23.426C13.9986 23.8087 13.5372 24 12.9981 24ZM8.45829 19.3334H17.5417V11.25C17.5417 9.99584 17.0982 8.92535 16.2114 8.03855C15.3246 7.15174 14.2541 6.70833 13 6.70833C11.7458 6.70833 10.6753 7.15174 9.78851 8.03855C8.9017 8.92535 8.45829 9.99584 8.45829 11.25V19.3334Z" fill="#757575"/>
</g>
</svg>
