<svg width="31" height="30" viewBox="0 0 31 30" fill="none" xmlns="http://www.w3.org/2000/svg">
<mask id="mask0_228_621" style="mask-type:alpha" maskUnits="userSpaceOnUse" x="0" y="0" width="31" height="30">
<rect x="0.5" width="30" height="30" fill="#D9D9D9"/>
</mask>
<g mask="url(#mask0_228_621)">
<path d="M19.8414 20.6586L21.1587 19.3413L16.4375 14.6199V8.74997H14.5626V15.3798L19.8414 20.6586ZM15.5021 26.8749C13.8597 26.8749 12.3159 26.5633 10.8707 25.9399C9.42556 25.3166 8.16846 24.4707 7.09944 23.4021C6.03039 22.3336 5.18407 21.077 4.56047 19.6325C3.93686 18.1879 3.62506 16.6445 3.62506 15.0021C3.62506 13.3596 3.93673 11.8159 4.56006 10.3707C5.18339 8.9255 6.02933 7.6684 7.09787 6.59938C8.16644 5.53034 9.42299 4.68401 10.8675 4.06041C12.3121 3.4368 13.8555 3.125 15.4979 3.125C17.1404 3.125 18.6841 3.43667 20.1293 4.06C21.5745 4.68333 22.8316 5.52927 23.9006 6.59781C24.9697 7.66638 25.816 8.92293 26.4396 10.3675C27.0632 11.812 27.375 13.3555 27.375 14.9979C27.375 16.6403 27.0633 18.1841 26.44 19.6293C25.8167 21.0744 24.9707 22.3315 23.9022 23.4006C22.8336 24.4696 21.5771 25.3159 20.1325 25.9395C18.688 26.5631 17.1445 26.8749 15.5021 26.8749Z" fill="#B32751"/>
</g>
</svg>
